<svg width="208" height="208" viewBox="0 0 208 208" fill="none" xmlns="http://www.w3.org/2000/svg">
<path d="M25.9998 52H182V34.6666H25.9998C16.4665 34.6666 8.6665 42.4666 8.6665 52V156C8.6665 165.533 16.4665 173.333 25.9998 173.333H60.6665V156H25.9998V52ZM112.666 104H77.9998V119.427C72.7132 124.193 69.3332 130.953 69.3332 138.667C69.3332 146.38 72.7132 153.14 77.9998 157.907V173.333H112.666V157.907C117.953 153.14 121.333 146.293 121.333 138.667C121.333 131.04 117.953 124.193 112.666 119.427V104ZM95.3332 151.667C88.1398 151.667 82.3332 145.86 82.3332 138.667C82.3332 131.473 88.1398 125.667 95.3332 125.667C102.526 125.667 108.333 131.473 108.333 138.667C108.333 145.86 102.526 151.667 95.3332 151.667ZM190.666 69.3333H138.666C134.333 69.3333 130 73.6666 130 78V164.667C130 169 134.333 173.333 138.666 173.333H190.666C195 173.333 199.333 169 199.333 164.667V78C199.333 73.6666 195 69.3333 190.666 69.3333ZM182 156H147.333V86.6666H182V156Z" fill="#424242"/>
</svg>
