<svg width="24" height="25" viewBox="0 0 24 25" fill="none" xmlns="http://www.w3.org/2000/svg">
<path d="M20 4.00998H4C2.9 4.00998 2 4.90998 2 6.00998V18.01C2 19.11 2.9 20.01 4 20.01H20C21.1 20.01 22 19.11 22 18.01V6.00998C22 4.90998 21.1 4.00998 20 4.00998ZM19.6 8.25998L13.06 12.35C12.41 12.76 11.59 12.76 10.94 12.35L4.4 8.25998C4.15 8.09998 4 7.82998 4 7.53998C4 6.86998 4.73 6.46998 5.3 6.81998L12 11.01L18.7 6.81998C19.27 6.46998 20 6.86998 20 7.53998C20 7.82998 19.85 8.09998 19.6 8.25998Z" fill="black"/>
</svg>
