<svg width="49" height="49" viewBox="0 0 49 49" fill="none" xmlns="http://www.w3.org/2000/svg">
<path d="M39.8445 24.3214L21.7471 42.3818C21.4041 42.7068 21.1265 43.1145 20.9339 43.5763C20.7412 44.0381 20.638 44.543 20.6316 45.0556C20.6316 47.1391 22.3645 48.8689 24.3945 48.9943C24.8814 49.0235 25.3685 48.9396 25.8269 48.7474C26.2852 48.5552 26.7056 48.2587 27.0632 47.8755L47.4504 27.4065C47.518 27.351 47.5838 27.2914 47.6479 27.2317C48.0562 26.9081 48.3918 26.4765 48.627 25.9729C48.8622 25.4692 48.99 24.908 49 24.3358C48.995 23.862 48.907 23.3942 48.7412 22.9608C48.5755 22.5274 48.3355 22.1374 48.0357 21.8142L47.9628 21.7422L27.2625 1.11286C26.5161 0.385928 25.5696 -0.00870933 24.5937 0.000145848C22.7844 0.000145848 21.0782 1.47896 21.0782 3.56041C21.0782 4.62787 21.1422 5.28398 21.9677 6.48307L39.8445 24.3214Z" fill="#4C29FF"/>
<path d="M9.15546 24.5051L27.2529 6.44461C27.5959 6.11957 27.8735 5.71189 28.0661 5.25002C28.2588 4.78815 28.362 4.28322 28.3684 3.77049C28.3684 1.6888 26.8597 0 24.771 0C23.773 0.0148734 22.8147 0.454245 22.0792 1.23421L1.54963 21.4176C1.48202 21.4731 1.4162 21.5328 1.35215 21.5945C0.943769 21.9176 0.608023 22.3488 0.372839 22.8522C0.137655 23.3556 0.00983129 23.9167 0 24.4887C0.00454447 24.9633 0.0923515 25.4318 0.258103 25.866C0.423854 26.3002 0.664097 26.691 0.964292 27.0147L1.03724 27.0867L21.6931 47.5766C22.5987 48.4755 23.5149 49 24.5628 49C26.4861 49 27.9272 47.7658 28.2119 45.68C28.3684 44.5322 27.7511 43.0326 27.0394 42.3476L9.15546 24.5051Z" fill="#74FDE6"/>
<path d="M21.4912 3.55528C21.4912 4.62001 21.553 5.27444 22.3491 6.47048L24.8028 9L27.2926 6.4274C27.6234 6.10323 27.8911 5.69664 28.0769 5.236C28.2627 4.77536 28.3622 4.27179 28.3684 3.76043C28.3684 2.09255 27.4281 0.683151 26.0159 0.186684C25.6504 0.0624372 25.2721 -0.000388953 24.8921 1.81164e-06C23.9743 0.0165283 23.0908 0.419727 22.3972 1.13859C22.1141 1.44408 21.8873 1.81675 21.7313 2.23284C21.5753 2.64893 21.4935 3.09931 21.4912 3.55528Z" fill="#40D4FA"/>
<path d="M28.3684 45.528C28.3684 44.489 28.3066 43.8471 27.5096 42.6777L24.6292 40L22.5681 42.7158C22.2367 43.0325 21.9686 43.43 21.7826 43.8804C21.5965 44.3309 21.4971 44.8233 21.4912 45.3234C21.4912 46.9561 22.4307 48.3321 23.846 48.8195C24.2122 48.9396 24.5907 49.0003 24.971 49C25.8882 48.9841 26.7711 48.5898 27.4632 47.8868C27.7465 47.5889 27.9733 47.2252 28.1292 46.819C28.2851 46.4128 28.3665 45.9731 28.3684 45.528Z" fill="#3FD3FF"/>
</svg>
