<svg width="787" height="619" viewBox="0 0 787 619" fill="none" xmlns="http://www.w3.org/2000/svg">
<g opacity="0.5">
<path d="M652.722 192.377L346.706 420.059C340.943 424.119 335.968 429.539 332.131 435.942C328.293 442.345 325.684 449.577 324.486 457.131C320.003 487.888 336.802 510.781 366.5 517C373.626 518.479 379.32 517.851 386.5 516C393.68 514.149 400.897 510.889 407 506L758.365 254.284C759.483 253.609 760.583 252.87 761.657 252.128C768.381 248.228 774.265 242.579 778.82 235.65C783.375 228.721 786.47 220.712 787.848 212.286C788.793 205.28 788.5 198.186 786.986 191.431C785.471 184.677 782.768 178.402 779.038 172.986L778.116 171.767L516.909 -177.306C507.456 -189.643 494.332 -197.505 479.907 -199.474C453.196 -203.366 424.826 -185.206 420.349 -154.479C418.052 -138.721 417.586 -128.897 427.193 -109.42L652.722 192.377Z" fill="#4C29FF"/>
<path d="M228.365 103.327L558.884 -87.0488C565.082 -90.4081 570.656 -95.2112 575.215 -101.123C579.775 -107.034 583.211 -113.912 585.284 -121.276C593.322 -151.273 578.102 -181.434 548.003 -189.499C533.565 -193.138 518.06 -190.507 504.448 -182.108L130.686 29.4678C129.497 30.0071 128.319 30.6125 127.157 31.2544C120.025 34.3339 113.522 39.2512 108.189 45.5971C102.856 51.9431 98.8482 59.5342 96.4978 67.7393C94.7309 74.5955 94.187 81.6866 94.899 88.5833C95.611 95.48 97.5641 102.039 100.64 107.862L101.413 109.182L319.95 484.197C329.529 500.647 340.707 511.743 355.807 515.789C383.521 523.215 409.053 510.995 421.209 482.037C427.897 466.102 424.79 442.109 417.18 429.491L228.365 103.327Z" fill="#74FDE6"/>
<path d="M424.052 480.451C428.064 465.479 429.651 455.991 422.682 436.063L391.515 386.355L351.328 417.533C345.329 420.816 339.931 425.508 335.511 431.281C331.091 437.053 327.757 443.766 325.741 450.949C319.437 474.476 327.663 497.932 346.175 510.42C350.988 513.565 356.208 515.902 361.69 517.365C374.968 520.679 389.212 518.405 401.901 510.947C407.132 507.748 411.805 503.383 415.62 498.132C419.434 492.88 422.307 486.858 424.052 480.451Z" fill="#3FD3FF"/>
</g>
</svg>
