<svg width="720" height="1077" viewBox="0 0 720 1077" fill="none" xmlns="http://www.w3.org/2000/svg">
<g opacity="0.5">
<path d="M804.885 606.346L407.499 835.235C400.047 839.273 393.346 845.047 387.864 852.154C382.382 859.261 378.251 867.529 375.76 876.381C366.087 912.478 388.08 950.491 422.668 962.089C430.969 964.855 439.797 965.661 448.631 964.46C457.465 963.258 466.125 960.073 474.099 955.093L922.336 695.106C923.765 694.457 925.183 693.73 926.569 692.994C935.146 689.282 942.964 683.363 949.377 675.729C955.789 668.095 960.61 658.965 963.439 649.098C965.552 640.865 966.198 632.353 965.338 624.075C964.479 615.797 962.132 607.925 958.439 600.934L957.509 599.348L694.637 145.841C685.081 129.782 670.515 118.551 653.566 114.174C622.218 105.774 585.793 123.475 576.13 159.536C571.174 178.03 569.238 189.695 577.974 214.302L804.885 606.346Z" fill="#4C29FF"/>
<path d="M272.334 467.061L669.72 238.171C677.172 234.132 683.873 228.357 689.355 221.25C694.837 214.142 698.969 205.873 701.461 197.02C711.125 160.954 692.825 124.691 656.638 114.994C639.278 110.619 620.636 113.783 604.271 123.881L154.894 378.26C153.465 378.908 152.047 379.636 150.651 380.408C142.076 384.11 134.257 390.023 127.846 397.652C121.434 405.282 116.615 414.409 113.789 424.274C111.665 432.517 111.011 441.043 111.867 449.335C112.723 457.627 115.071 465.512 118.769 472.514L119.699 474.1L382.447 924.984C393.964 944.762 407.403 958.103 425.559 962.968C458.88 971.896 489.577 957.203 504.192 922.388C512.233 903.228 508.498 874.382 499.348 859.211L272.334 467.061Z" fill="#74FDE6"/>
<path d="M583.31 161.365C578.367 179.812 576.4 191.437 584.641 215.855L615.409 271.07L670.487 238.057C677.724 233.977 684.249 228.175 689.606 221.057C694.964 213.939 699.026 205.676 701.507 196.845C709.25 167.949 699.502 139.166 677.341 124.008C671.584 120.159 665.322 117.314 658.736 115.557C642.758 111.582 625.579 114.466 610.226 123.701C603.902 127.68 598.243 133.083 593.609 139.568C588.975 146.053 585.467 153.476 583.31 161.365Z" fill="#40D4FA"/>
<path d="M507.61 920.481C512.433 902.48 514.342 891.073 505.963 867.113L468.49 807.349L420.173 844.833C412.961 848.781 406.471 854.423 401.157 861.363C395.842 868.303 391.833 876.374 389.41 885.01C381.831 913.298 391.72 941.498 413.978 956.513C419.764 960.294 426.04 963.104 432.631 964.863C448.596 968.847 465.722 966.113 480.977 957.146C487.267 953.3 492.886 948.052 497.472 941.739C502.058 935.425 505.511 928.184 507.61 920.481Z" fill="#3FD3FF"/>
</g>
</svg>
