<svg width="918" height="683" viewBox="0 0 918 683" fill="none" xmlns="http://www.w3.org/2000/svg">
<g opacity="0.5">
<path d="M792.083 575.296L407.221 824.669C399.991 829.092 393.601 835.208 388.499 842.592C383.396 849.976 379.704 858.449 377.679 867.419C369.909 903.973 393.861 940.783 429.008 950.555C437.443 952.883 446.301 953.226 455.06 951.564C463.819 949.901 472.3 946.267 480.002 940.877L914.019 657.787C915.412 657.065 916.789 656.264 918.135 655.456C926.506 651.3 934.004 644.981 940.008 637.022C946.012 629.062 950.349 619.693 952.658 609.691C954.336 601.359 954.536 592.825 953.245 584.603C951.953 576.381 949.197 568.643 945.143 561.855L944.132 560.32L660.5 118C650.117 102.463 633.5 95 616 92C585.786 92 548.02 104.553 540.257 141.07C536.277 159.799 538.988 169.384 549 193.5L792.083 575.296Z" fill="#4C29FF"/>
<path d="M252.973 464.074L638 215.5C644 210.5 651.455 204.158 656.558 196.774C661.66 189.389 665.353 180.915 667.379 171.943C675.142 135.421 654.97 100.165 618.324 92.3762C600.76 88.9154 582.308 93.0504 566.495 103.991L131.046 381.54C129.653 382.262 128.275 383.063 126.922 383.907C118.552 388.054 111.053 394.367 105.05 402.322C99.0463 410.276 94.7114 419.643 92.4057 429.642C90.7157 437.986 90.5088 446.534 91.7977 454.77C93.0865 463.005 95.8441 470.757 99.9038 477.556L100.915 479.091L386.901 915.606C399.437 934.754 413.556 947.374 431.941 951.282C465.684 958.454 495.57 942.174 508.343 906.641C515.37 887.088 510.131 858.476 500.199 843.805L252.973 464.074Z" fill="#74FDE6"/>
<path d="M547.524 142.521C543.553 161.201 542.196 172.913 551.705 196.866L585 249.5L638.595 214.545C645.608 210.092 651.82 203.956 656.798 196.568C661.776 189.179 665.4 180.715 667.416 171.767C673.636 142.505 662.395 114.271 639.47 100.294C633.52 96.7512 627.118 94.2383 620.448 92.8278C604.284 89.6951 587.28 93.4743 572.431 103.5C566.325 107.804 560.956 113.496 556.668 120.215C552.379 126.933 549.265 134.53 547.524 142.521Z" fill="#40D4FA"/>
</g>
</svg>
