<svg width="80" height="80" viewBox="0 0 80 80" fill="none" xmlns="http://www.w3.org/2000/svg">
<path d="M80 40C80 42.4195 79.7845 44.7886 79.3731 47.0889C76.0278 65.7992 59.6719 80 40 80C25.1787 80 12.24 71.9395 5.33063 59.9625C3.64406 57.0417 2.31844 53.8891 1.41062 50.5633C0.489844 47.1984 0 43.6555 0 40C0 17.9086 17.9086 0 40 0C58.2334 0 73.6162 12.1992 78.4342 28.8816C79.4531 32.4114 80 36.142 80 40Z" fill="#8F9ED1"/>
<path d="M20.3394 27.85H5.60802L1.41052 50.5635C2.31833 53.8893 3.64396 57.0419 5.33052 59.9627H6.69708L8.32318 51.166H16.4179C26.2741 51.166 28.924 42.3171 29.5591 37.9708C30.1958 33.6263 27.0171 27.85 20.3394 27.85ZM22.4766 38.7038C22.1158 41.1675 20.2954 46.1846 14.7085 46.1846H9.24396L11.6865 32.965H17.249C22.671 32.965 22.8374 36.2402 22.4766 38.7038Z" fill="#F2F2F2"/>
<path d="M78.434 28.8817C77.1818 28.2352 75.6895 27.8499 73.9654 27.8499H59.234L53.2993 59.9627H60.3229L61.949 51.1659H70.0437C74.4274 51.1659 77.3857 49.4158 79.3726 47.0892C79.7843 44.7888 79.9998 42.4197 79.9998 40.0002C79.9998 36.1422 79.4529 32.4116 78.434 28.8817ZM76.1026 38.7038C75.7418 41.1675 73.9213 46.1845 68.3328 46.1845H62.8699L65.3124 32.965H70.8749C76.297 32.965 76.4634 36.2402 76.1026 38.7038Z" fill="#F2F2F2"/>
<path d="M48.3183 27.9563C45.4597 27.9563 41.6458 27.9563 39.7875 27.9563L41.3888 19.2921H34.3941L28.4592 51.4039H35.4539L38.8669 32.9374C40.1278 32.9374 41.8028 32.9374 43.3372 32.9374C46.3045 32.9374 48.3183 33.5733 47.8942 36.3288C47.4703 39.0842 45.0328 51.2719 45.0328 51.2719H52.1334C52.1334 51.2719 54.8889 37.7066 55.3128 33.8911C55.7369 30.0758 52.2395 27.9563 48.3183 27.9563Z" fill="#F2F2F2"/>
</svg>
