<svg width="53" height="51" viewBox="0 0 53 51" fill="none" xmlns="http://www.w3.org/2000/svg">
<path d="M9.15571 25.7053L27.2531 7.64472C27.5962 7.31969 27.8737 6.91201 28.0664 6.45014C28.2591 5.98827 28.3622 5.48334 28.3687 4.97061C28.3687 2.88892 28.089 0.00012207 26.0002 0.00012207C25.0023 0.0149955 22.815 1.65436 22.0794 2.43432L1.54988 22.6177C1.48227 22.6732 1.41644 22.7329 1.35239 22.7946C0.944013 23.1177 0.608267 23.5489 0.373083 24.0523C0.137899 24.5557 0.0100754 25.1168 0.000244141 25.6888L0.000363827 25.7053C1.92362 25.7053 9.15571 25.7053 9.15571 25.7053Z" fill="#74FDE6"/>
<path d="M42.9698 25.0215L43.0002 25.0001C43.0002 25.0001 42.9762 24.5088 42.9698 25.0215L52.1252 25.0359C52.0612 25.0955 52.1928 24.9804 52.1252 25.0359C52.1202 24.5621 52.0322 24.0943 51.8664 23.661C51.7007 23.2276 51.4607 22.8375 51.1609 22.5143L51.088 22.4423L30.0003 1.50011C29.0003 0.500114 27.4762 -0.00874156 26.5003 0.000113614C24.691 0.000113614 24.2034 2.17907 24.2034 4.26051C24.2034 5.32797 24.2674 5.98409 25.0929 7.18318L42.9698 25.0215Z" fill="#4C29FF"/>
<path d="M23.0002 3.35788C23.0002 4.36347 23.112 4.94085 23.9224 6.07044L26.371 8.50012L28.9052 6.07044C29.2419 5.76428 29.5144 5.38028 29.7035 4.94523C29.8926 4.51019 29.9939 4.03459 30.0002 3.55164C30.0002 1.97641 29.0432 0.64532 27.6058 0.176435C27.2337 0.0590905 26.8487 -0.000245274 26.4618 0.000123781C25.5276 0.0157321 24.6284 0.396531 23.9224 1.07546C23.6342 1.36398 23.4034 1.71594 23.2446 2.10892C23.0859 2.50189 23.0026 2.92725 23.0002 3.35788Z" fill="#40D4FA"/>
<path d="M42.9895 25.0001L24.892 43.0607C24.549 43.3857 24.2715 43.7934 24.0788 44.2552C23.8861 44.7171 23.7829 45.222 23.7765 45.7348C23.7765 47.8165 23.9315 50.6701 26.0202 50.6701C27.8756 50.5701 29.3302 49.051 30.0658 48.2711L50.5953 28.0877C50.6629 28.0321 50.7287 27.9725 50.7928 27.9108C51.2012 27.5877 51.5369 27.1565 51.7721 26.6531C52.0073 26.1497 52.1203 25.5721 52.1301 25.0001L52.0002 25.0001C50.0769 25.0001 42.9895 25.0001 42.9895 25.0001Z" fill="#4C29FF"/>
<path d="M9.17551 25.6839L9.14502 25.7053C9.14502 25.7053 9.16906 26.1965 9.17551 25.6839C9.17551 25.6839 2.00024 25.5001 0.020037 25.6695C0.0840861 25.6098 -0.0475704 25.725 0.020037 25.6695C0.0250609 26.1433 0.113093 26.611 0.27883 27.0444C0.444566 27.4778 0.684565 27.8679 0.984329 28.1911L1.05728 28.2631L22.1449 49.2053C23.1449 50.2053 24.669 50.7141 25.6449 50.7053C27.4543 50.7053 27.9419 48.5263 27.9419 46.4449C27.9419 45.3774 27.8778 44.7213 27.0523 43.5222L9.17551 25.6839Z" fill="#74FDE6"/>
<path d="M29.145 47.3475C29.145 46.3419 29.0332 45.7645 28.2229 44.6349L25.7743 42.2053L23.2401 44.6349C22.9033 44.9411 22.6309 45.3251 22.4418 45.7601C22.2526 46.1952 22.1513 46.6708 22.145 47.1537C22.145 48.729 23.1021 50.0601 24.5395 50.5289C24.9116 50.6463 25.2966 50.7056 25.6834 50.7053C26.6176 50.6897 27.5169 50.3089 28.2229 49.6299C28.511 49.3414 28.7419 48.9894 28.9006 48.5965C29.0594 48.2035 29.1426 47.7781 29.145 47.3475Z" fill="#40D4FA"/>
</svg>
